PathFileType	4	(X/Y/Z)	C:/Users/beibeiliu/ov580/test_trc/User3\sequence.22_training_dense_right.trc
DataRate	CameraRate	NumFrames	NumMarkers	Units	OrigDataRate	OrigDataStartFrame	OrigNumFrames
120	120	10	19	mm	120	80	106
Frame#	Time	ThumbCMC			ThumbMCP			ThumbIP			ThumbTip			IndexMCP			IndexPIP			IndexTip			MiddleMCP			MiddlePIP			MiddleTip			RingMCP			RingPIP			RingTip			PinkyMCP			PinkyPIP			PinkyTip			BackHand1			BackHand2			BackHand3	
		X0	Y0	Z0	X1	Y1	Z1	X2	Y2	Z2	X3	Y3	Z3	X4	Y4	Z4	X5	Y5	Z5	X6	Y6	Z6	X7	Y7	Z7	X8	Y8	Z8	X9	Y9	Z9	X10	Y10	Z10	X11	Y11	Z11	X12	Y12	Z12	X13	Y13	Z13	X14	Y14	Z14	X15	Y15	Z15	X16	Y16	Z16	X17	Y17	Z17	X18	Y18	Z18	
79	0.658333	80.3744	71.0122	30.0115	66.0345	81.2933	5.09385	61.3233	88.6687	-20.3483	62.7856	95.9579	-45.5546	87.2157	101.99	-39.6428	76.0898	75.1967	-53.704	73.2634	60.6147	-24.3839	103.067	89.998	-42.7995	90.6953	60.1161	-50.7372	96.9449	51.7302	-8.62283	120.444	78.7021	-41.0918	106.085	49.177	-47.8543	105.991	41.2036	-14.169	146.005	83.1611	-34.3943	139.157	89.2471	-52.1135	139.122	95.0728	-77.7843	139.806	86.2681	13.7327	140.581	74.1821	38.2791	110.043	89.1594	32.1723	
80	0.666667	102.187	80.4518	26.914	92.4551	93.2829	-2.74386	89.0499	100.587	-29.3679	86.3188	104.882	-53.0477	118.028	94.4005	-49.1056	91.5701	76.7951	-58.0193	87.1216	65.9169	-26.3154	124.51	76.6504	-51.429	101.436	53.8049	-52.6501	103.394	52.2124	-12.5016	136.652	62.3756	-48.1578	112.205	42.6964	-49.9441	108.752	38.9067	-15.5085	157.307	59.7709	-39.5977	154.228	62.6401	-63.4571	148.392	65.3587	-87.765	159.847	70.1502	5.49975	158.542	59.1311	31.7001	135.811	85.7584	24.0708	
81	0.675	129.314	83.0005	18.6086	121.805	91.7744	-10.4233	118.63	96.2454	-39.1809	117.022	89.801	-61.4889	135.768	74.0512	-57.8633	104.076	68.6809	-60.2502	100.426	69.2398	-25.5324	132.352	49.9488	-58.2105	102.032	44.9389	-47.132	110.976	51.8609	-10.8571	135.807	33.1681	-50.9879	104.742	31.3688	-42.9244	110.469	33.5237	-8.99063	153.666	22.7408	-43.9128	147.168	20.7227	-64.8479	139.896	22.2861	-85.9366	169.814	39.0081	0.66406	169.951	34.089	29.0891	162.545	66.1726	12.7813	
82	0.683333	150.475	75.3628	10.8691	141.054	79.0368	-17.109	133.377	75.3359	-45.9344	124.156	70.0406	-66.6511	135.043	44.5875	-58.4639	105.979	54.0509	-58.2674	106.843	61.6154	-27.2028	127.083	30.2103	-52.393	98.4427	42.0113	-45.0501	116.15	47.2881	-4.80722	121.425	14.8066	-43.0227	96.1281	27.029	-29.8947	107.134	33.692	-2.34454	135.556	-3.03821	-32.157	122.289	-7.05957	-52.4717	111.501	-6.44595	-70.698	165.195	10.906	-2.83771	170.821	16.0315	26.5492	171.607	44.6582	4.61108	
83	0.691667	157.152	61.15	13.2179	144.035	69.1165	-17.3081	130.854	67.1304	-41.3537	115.977	61.5882	-60.7139	124.888	32.1626	-50.5785	96.4933	52.6114	-47.3966	110.235	62.9947	-17.9466	111.473	19.8593	-41.3831	88.394	40.103	-29.5411	112.636	46.5728	1.80977	108.069	10.0462	-28.7875	84.9838	25.4983	-16.1803	107.237	37.8696	9.12746	111.49	-10.5602	-21.886	95.4103	-10.3705	-37.3051	81.6502	-11.4465	-50.8524	153.144	-4.15955	4.73661	163.781	1.87817	35.3391	170.9	27.13	5.37065	
84	0.7	161.956	52.8179	15.8549	147.373	60.3223	-10.9803	130.993	64.7002	-37.7628	114.437	63.1537	-50.3717	117.096	37.0462	-46.4058	94.2863	57.8811	-35.7903	113.326	63.4598	-9.06117	103.29	26.5796	-31.4033	86.4624	52.5235	-14.6728	115.402	46.232	12.1023	93.8916	18.4074	-20.0509	78.7469	36.3291	-0.326575	107.189	42.5964	16.6987	97.6674	-6.70558	-5.87916	78.3364	-5.27709	-19.9404	64.0716	1.47753	-35.3408	141.563	-5.46618	6.50191	155.124	-5.75418	35.6	162.989	16.164	7.97158	
85	0.708333	170.783	42.2075	17.9442	161.376	55.1416	-7.7956	144.978	59.5867	-32.5154	132.083	66.7684	-50.1534	126.145	36.7841	-40.7244	108.952	65.0148	-35.2585	127.877	64.6272	-5.48981	107.5	35.7127	-30.9774	97.137	59.1571	-14.7489	127.2	47.133	14.0627	94.1642	24.1615	-15.2435	89.1544	49.111	-2.59857	114.343	42.1972	21.6973	93.3347	1.99216	-7.23507	78.5271	6.42076	-19.6127	63.9575	17.5106	-37.7681	138.025	-8.35348	13.6355	150.469	-10.1427	43.0659	165.464	6.63259	15.9243	
86	0.716667	186.57	28.6532	20.6451	183.814	42.1939	-5.2496	173.841	47.2941	-36.3818	163.797	54.6138	-52.9594	147.348	28.8359	-44.9184	136.96	56.7723	-41.4861	149.265	54.9454	-6.27188	127.838	26.645	-35.0678	122.14	56.823	-20.715	145.241	40.5856	9.50008	111.801	22.7163	-23.8103	111.68	49.3228	-10.501	133.867	40.0897	12.8321	107.786	0.31674	-12.4764	97.7098	6.46456	-31.8637	87.4704	13.9443	-48.9989	142.072	-15.3588	12.9225	151.871	-20.9311	43.3806	174.003	-6.68711	15.7175	
87	0.725	202.483	14.8599	28.8833	204.673	22.6717	-3.88839	204.14	28.9407	-33.9862	196.508	33.183	-55.855	175.617	13.5048	-44.9962	170.288	44.0994	-45.8163	179.359	47.873	-12.7011	156.926	17.7911	-40.898	155.676	47.1403	-30.0398	163.527	33.9344	5.93109	140.037	13.4495	-32.0975	136.035	40.9902	-20.0848	151.784	33.7932	7.35522	126.887	-6.43687	-20.4612	123.608	0.888142	-40.5346	115.59	9.02213	-62.8882	153.905	-26.1435	14.7626	157.964	-25.1888	42.5725	186.463	-17.5775	24.1205	
88	0.733333	215.97	12.2063	35.3409	225.816	19.3801	3.45807	226.056	20.2951	-25.0106	221.481	21.876	-49.2842	202.55	2.98755	-41.0975	194.355	36.0901	-44.2711	198.507	37.8277	-10.2586	179.968	6.3963	-41.4489	176.016	36.5333	-34.4841	182.522	27.7483	5.85292	168.045	4.66217	-35.9575	160.948	32.4722	-26.3214	167.484	23.9874	6.73683	154.321	-15.8274	-23.9881	150.44	-10.3101	-48.183	149.571	-2.77945	-71.8101	174.329	-29.9069	11.4871	173.162	-29.4496	41.9765	203.882	-22.5026	27.7453	
